<svg width="27" height="26" viewBox="0 0 27 26" fill="none" xmlns="http://www.w3.org/2000/svg">
<path d="M18.3212 7.96774C17.5318 3.28669 15.6697 0 13.5027 0C11.3358 0 9.47368 3.28669 8.68421 7.96774H18.3212ZM8.27586 13C8.27586 14.1637 8.3412 15.2802 8.45554 16.3548H18.5445C18.6588 15.2802 18.7241 14.1637 18.7241 13C18.7241 11.8363 18.6588 10.7198 18.5445 9.64516H8.45554C8.3412 10.7198 8.27586 11.8363 8.27586 13ZM25.9546 7.96774C24.3975 4.40847 21.245 1.65645 17.3521 0.545161C18.6806 2.31694 19.5953 4.98508 20.0744 7.96774H25.9546ZM9.64791 0.545161C5.76043 1.65645 2.60254 4.40847 1.05082 7.96774H6.93103C7.40472 4.98508 8.31942 2.31694 9.64791 0.545161ZM26.5372 9.64516H20.2922C20.4065 10.746 20.4719 11.873 20.4719 13C20.4719 14.127 20.4065 15.254 20.2922 16.3548H26.5318C26.8312 15.2802 27 14.1637 27 13C27 11.8363 26.8312 10.7198 26.5372 9.64516ZM6.53358 13C6.53358 11.873 6.59891 10.746 6.71325 9.64516H0.46824C0.174229 10.7198 0 11.8363 0 13C0 14.1637 0.174229 15.2802 0.46824 16.3548H6.7078C6.59891 15.254 6.53358 14.127 6.53358 13ZM8.68421 18.0323C9.47368 22.7133 11.3358 26 13.5027 26C15.6697 26 17.5318 22.7133 18.3212 18.0323H8.68421ZM17.3575 25.4548C21.245 24.3435 24.4029 21.5915 25.9601 18.0323H20.0799C19.6007 21.0149 18.686 23.6831 17.3575 25.4548ZM1.05082 18.0323C2.60799 21.5915 5.76044 24.3435 9.65336 25.4548C8.32486 23.6831 7.41016 21.0149 6.93103 18.0323H1.05082Z" fill="#5E5858"/>
</svg>
